<svg xmlns="http://www.w3.org/2000/svg" viewBox="0 0 100 100">
  <defs>
    <linearGradient id="grad" x1="0%" y1="0%" x2="100%" y2="100%">
      <stop offset="0%" style="stop-color:#667eea;stop-opacity:1" />
      <stop offset="100%" style="stop-color:#764ba2;stop-opacity:1" />
    </linearGradient>
  </defs>
  <circle cx="50" cy="50" r="45" fill="url(#grad)"/>
  <path d="M50 25 C35 25, 25 35, 25 50 C25 65, 35 80, 50 80 C65 80, 75 65, 75 50 C75 35, 65 25, 50 25 M50 35 C58 35, 65 42, 65 50 C65 58, 58 65, 50 65 C42 65, 35 58, 35 50 C35 42, 42 35, 50 35" fill="white" opacity="0.9"/>
  <circle cx="50" cy="50" r="8" fill="white"/>
</svg>
